<svg xmlns="http://www.w3.org/2000/svg" width="174.24" height="35" viewBox="0 0 174.24 35"><rect class="svg__rect" x="0" y="0" width="95.99" height="35" fill="#BD82F0"/><rect class="svg__rect" x="93.99" y="0" width="80.25" height="35" fill="#B637D6"/><path class="svg__text" d="M15.69 22L14.22 22L14.22 13.47L16.14 13.47L18.60 20.01L21.06 13.47L22.97 13.47L22.97 22L21.49 22L21.49 19.19L21.64 15.43L19.12 22L18.06 22L15.55 15.43L15.69 19.19L15.69 22ZM28.49 22L26.95 22L30.17 13.47L31.50 13.47L34.73 22L33.18 22L32.49 20.01L29.18 20.01L28.49 22ZM30.83 15.28L29.60 18.82L32.07 18.82L30.83 15.28ZM41.14 22L38.69 22L38.69 13.47L41.21 13.47Q42.34 13.47 43.21 13.97Q44.09 14.48 44.57 15.40Q45.05 16.33 45.05 17.52L45.05 17.52L45.05 17.95Q45.05 19.16 44.57 20.08Q44.08 21.00 43.19 21.50Q42.30 22 41.14 22L41.14 22ZM40.17 14.66L40.17 20.82L41.14 20.82Q42.30 20.82 42.93 20.09Q43.55 19.36 43.56 17.99L43.56 17.99L43.56 17.52Q43.56 16.13 42.96 15.40Q42.35 14.66 41.21 14.66L41.21 14.66L40.17 14.66ZM55.09 22L49.51 22L49.51 13.47L55.05 13.47L55.05 14.66L51.00 14.66L51.00 17.02L54.50 17.02L54.50 18.19L51.00 18.19L51.00 20.82L55.09 20.82L55.09 22ZM68.38 22L65.26 22L65.26 13.47L68.19 13.47Q69.64 13.47 70.39 14.05Q71.15 14.63 71.15 15.78L71.15 15.78Q71.15 16.36 70.83 16.83Q70.51 17.30 69.90 17.56L69.90 17.56Q70.60 17.75 70.97 18.26Q71.35 18.78 71.35 19.51L71.35 19.51Q71.35 20.71 70.58 21.36Q69.81 22 68.38 22L68.38 22ZM66.75 18.15L66.75 20.82L68.39 20.82Q69.09 20.82 69.48 20.47Q69.88 20.13 69.88 19.51L69.88 19.51Q69.88 18.18 68.52 18.15L68.52 18.15L66.75 18.15ZM66.75 14.66L66.75 17.06L68.20 17.06Q68.89 17.06 69.28 16.75Q69.67 16.43 69.67 15.86L69.67 15.86Q69.67 15.23 69.31 14.95Q68.95 14.66 68.19 14.66L68.19 14.66L66.75 14.66ZM77.86 18.86L75.00 13.47L76.64 13.47L78.61 17.51L80.57 13.47L82.21 13.47L79.35 18.86L79.35 22L77.86 22L77.86 18.86Z" fill="#FFFFFF"/><path class="svg__text" d="M110.56 22L108.18 22L108.18 13.60L112.02 13.60Q113.16 13.60 114.00 13.98Q114.84 14.35 115.30 15.06Q115.75 15.76 115.75 16.71L115.75 16.71Q115.75 17.62 115.33 18.30Q114.90 18.98 114.11 19.36L114.11 19.36L115.92 22L113.38 22L111.85 19.77L110.56 19.77L110.56 22ZM110.56 15.47L110.56 17.93L111.88 17.93Q112.61 17.93 112.98 17.61Q113.35 17.29 113.35 16.71L113.35 16.71Q113.35 16.12 112.98 15.79Q112.61 15.47 111.88 15.47L111.88 15.47L110.56 15.47ZM120.11 17.80L120.11 17.80Q120.11 16.55 120.72 15.55Q121.32 14.56 122.38 14.00Q123.45 13.43 124.78 13.43L124.78 13.43Q126.11 13.43 127.17 14.00Q128.23 14.56 128.84 15.55Q129.45 16.55 129.45 17.80L129.45 17.80Q129.45 19.05 128.84 20.04Q128.23 21.04 127.17 21.60Q126.11 22.17 124.78 22.17L124.78 22.17Q123.45 22.17 122.38 21.60Q121.32 21.04 120.72 20.04Q120.11 19.05 120.11 17.80ZM122.51 17.80L122.51 17.80Q122.51 18.51 122.81 19.05Q123.11 19.60 123.63 19.90Q124.14 20.20 124.78 20.20L124.78 20.20Q125.42 20.20 125.93 19.90Q126.45 19.60 126.75 19.05Q127.05 18.51 127.05 17.80L127.05 17.80Q127.05 17.09 126.75 16.54Q126.45 16 125.93 15.70Q125.42 15.40 124.78 15.40L124.78 15.40Q124.14 15.40 123.63 15.70Q123.11 16 122.81 16.54Q122.51 17.09 122.51 17.80ZM138.72 22L134.18 22L134.18 13.60L138.48 13.60Q140.08 13.60 140.92 14.19Q141.76 14.79 141.76 15.79L141.76 15.79Q141.76 16.39 141.47 16.87Q141.17 17.34 140.63 17.62L140.63 17.62Q141.35 17.87 141.76 18.41Q142.17 18.94 142.17 19.70L142.17 19.70Q142.17 20.80 141.28 21.40Q140.39 22 138.72 22L138.72 22ZM136.53 18.58L136.53 20.28L138.52 20.28Q139.77 20.28 139.77 19.43L139.77 19.43Q139.77 18.58 138.52 18.58L138.52 18.58L136.53 18.58ZM136.53 15.31L136.53 16.94L138.16 16.94Q139.36 16.94 139.36 16.12L139.36 16.12Q139.36 15.31 138.16 15.31L138.16 15.31L136.53 15.31ZM149.26 22L146.88 22L146.88 13.60L149.26 13.60L149.26 22ZM156.77 22L154.44 22L154.44 13.60L156.39 13.60L160.10 18.07L160.10 13.60L162.43 13.60L162.43 22L160.48 22L156.77 17.52L156.77 22Z" fill="#FFFFFF" x="106.99"/></svg>