<svg xmlns="http://www.w3.org/2000/svg" width="233.3" height="35" viewBox="0 0 233.3 35"><rect class="svg__rect" x="0" y="0" width="95.99" height="35" fill="#8FC965"/><rect class="svg__rect" x="93.99" y="0" width="139.31" height="35" fill="#419B5A"/><path class="svg__text" d="M15.69 22L14.22 22L14.22 13.47L16.14 13.47L18.60 20.01L21.06 13.47L22.97 13.47L22.97 22L21.49 22L21.49 19.19L21.64 15.43L19.12 22L18.06 22L15.55 15.43L15.69 19.19L15.69 22ZM28.49 22L26.95 22L30.17 13.47L31.50 13.47L34.73 22L33.18 22L32.49 20.01L29.18 20.01L28.49 22ZM30.83 15.28L29.60 18.82L32.07 18.82L30.83 15.28ZM41.14 22L38.69 22L38.69 13.47L41.21 13.47Q42.34 13.47 43.21 13.97Q44.09 14.48 44.57 15.40Q45.05 16.33 45.05 17.52L45.05 17.52L45.05 17.95Q45.05 19.16 44.57 20.08Q44.08 21.00 43.19 21.50Q42.30 22 41.14 22L41.14 22ZM40.17 14.66L40.17 20.82L41.14 20.82Q42.30 20.82 42.93 20.09Q43.55 19.36 43.56 17.99L43.56 17.99L43.56 17.52Q43.56 16.13 42.96 15.40Q42.35 14.66 41.21 14.66L41.21 14.66L40.17 14.66ZM55.09 22L49.51 22L49.51 13.47L55.05 13.47L55.05 14.66L51.00 14.66L51.00 17.02L54.50 17.02L54.50 18.19L51.00 18.19L51.00 20.82L55.09 20.82L55.09 22ZM68.38 22L65.26 22L65.26 13.47L68.19 13.47Q69.64 13.47 70.39 14.05Q71.15 14.63 71.15 15.78L71.15 15.78Q71.15 16.36 70.83 16.83Q70.51 17.30 69.90 17.56L69.90 17.56Q70.60 17.75 70.97 18.26Q71.35 18.78 71.35 19.51L71.35 19.51Q71.35 20.71 70.58 21.36Q69.81 22 68.38 22L68.38 22ZM66.75 18.15L66.75 20.82L68.39 20.82Q69.09 20.82 69.48 20.47Q69.88 20.13 69.88 19.51L69.88 19.51Q69.88 18.18 68.52 18.15L68.52 18.15L66.75 18.15ZM66.75 14.66L66.75 17.06L68.20 17.06Q68.89 17.06 69.28 16.75Q69.67 16.43 69.67 15.86L69.67 15.86Q69.67 15.23 69.31 14.95Q68.95 14.66 68.19 14.66L68.19 14.66L66.75 14.66ZM77.86 18.86L75.00 13.47L76.64 13.47L78.61 17.51L80.57 13.47L82.21 13.47L79.35 18.86L79.35 22L77.86 22L77.86 18.86Z" fill="#FFFFFF"/><path class="svg__text" d="M107.75 17.80L107.75 17.80Q107.75 16.54 108.35 15.54Q108.95 14.55 110.00 13.99Q111.05 13.43 112.37 13.43L112.37 13.43Q113.52 13.43 114.44 13.84Q115.37 14.25 115.98 15.02L115.98 15.02L114.47 16.39Q113.66 15.40 112.49 15.40L112.49 15.40Q111.80 15.40 111.27 15.70Q110.74 16 110.44 16.54Q110.15 17.09 110.15 17.80L110.15 17.80Q110.15 18.51 110.44 19.05Q110.74 19.60 111.27 19.90Q111.80 20.20 112.49 20.20L112.49 20.20Q113.66 20.20 114.47 19.22L114.47 19.22L115.98 20.58Q115.37 21.35 114.45 21.76Q113.52 22.17 112.37 22.17L112.37 22.17Q111.05 22.17 110.00 21.61Q108.95 21.05 108.35 20.05Q107.75 19.06 107.75 17.80ZM126.90 22L120.52 22L120.52 13.60L122.90 13.60L122.90 20.11L126.90 20.11L126.90 22ZM138.07 22L131.32 22L131.32 13.60L137.91 13.60L137.91 15.44L133.68 15.44L133.68 16.85L137.41 16.85L137.41 18.63L133.68 18.63L133.68 20.17L138.07 20.17L138.07 22ZM135.08 12.92L133.45 12.92L135.05 11.09L137.33 11.09L135.08 12.92ZM145.07 22L142.87 22L142.87 13.60L144.83 13.60L147.78 18.45L150.66 13.60L152.62 13.60L152.64 22L150.46 22L150.44 17.55L148.27 21.17L147.22 21.17L145.07 17.67L145.07 22ZM164.55 22L157.80 22L157.80 13.60L164.39 13.60L164.39 15.44L160.16 15.44L160.16 16.85L163.89 16.85L163.89 18.63L160.16 18.63L160.16 20.17L164.55 20.17L164.55 22ZM171.68 22L169.35 22L169.35 13.60L171.31 13.60L175.02 18.07L175.02 13.60L177.34 13.60L177.34 22L175.39 22L171.68 17.52L171.68 22ZM184.30 15.48L181.71 15.48L181.71 13.60L189.24 13.60L189.24 15.48L186.67 15.48L186.67 22L184.30 22L184.30 15.48ZM195.99 22L193.61 22L193.61 13.60L195.99 13.60L195.99 22ZM203.49 22L201.16 22L201.16 13.60L203.12 13.60L206.83 18.07L206.83 13.60L209.15 13.60L209.15 22L207.20 22L203.49 17.52L203.49 22ZM221.06 22L214.31 22L214.31 13.60L220.91 13.60L220.91 15.44L216.67 15.44L216.67 16.85L220.40 16.85L220.40 18.63L216.67 18.63L216.67 20.17L221.06 20.17L221.06 22Z" fill="#FFFFFF" x="106.99"/></svg>