<?xml version="1.0" standalone="no"?>
<!DOCTYPE svg PUBLIC "-//W3C//DTD SVG 20010904//EN"
 "http://www.w3.org/TR/2001/REC-SVG-20010904/DTD/svg10.dtd">
<svg version="1.0" xmlns="http://www.w3.org/2000/svg"
 width="920.000000pt" height="578.000000pt" viewBox="0 0 920.000000 578.000000"
 preserveAspectRatio="xMidYMid meet">

<g transform="translate(0.000000,578.000000) scale(0.100000,-0.100000)"
fill="#404040" stroke="none">
<path d="M4502 5770 c-23 -5 -48 -12 -54 -16 -6 -4 -73 -11 -147 -15 -210 -12
-363 -62 -573 -186 -51 -30 -125 -70 -165 -89 -76 -36 -112 -73 -205 -204 -25
-36 -59 -77 -74 -92 -32 -30 -92 -58 -124 -58 -30 0 -131 -105 -159 -164 -33
-72 -51 -167 -51 -281 0 -97 20 -259 41 -321 20 -65 298 -313 414 -372 63 -31
177 -62 232 -62 44 0 53 4 88 41 22 22 87 78 145 124 123 97 195 171 217 223
9 20 19 74 24 120 10 113 33 148 184 282 145 130 187 183 220 281 49 144 91
177 155 123 49 -42 64 -80 65 -164 1 -92 18 -122 134 -227 110 -100 149 -190
92 -208 -27 -8 -62 8 -122 57 -147 119 -198 138 -261 100 -19 -12 -40 -33 -48
-46 -7 -14 -21 -28 -31 -31 -41 -13 -177 -111 -234 -169 -90 -90 -168 -214
-189 -301 -4 -16 -22 -59 -39 -95 -29 -59 -32 -73 -32 -160 0 -88 3 -100 33
-158 37 -71 136 -176 200 -212 38 -21 42 -27 42 -62 0 -47 30 -108 105 -213
69 -96 105 -160 105 -189 0 -29 -25 -63 -58 -80 -15 -8 -50 -36 -77 -63 -68
-65 -100 -73 -262 -66 l-132 6 -32 -34 c-67 -73 -102 -80 -253 -58 -228 34
-421 -102 -491 -346 -11 -35 -18 -98 -19 -155 l-1 -95 -40 -30 c-98 -75 -175
-267 -175 -437 0 -26 -5 -48 -10 -48 -6 0 -32 11 -58 24 -129 65 -282 100
-427 99 -91 0 -123 -5 -188 -27 -233 -78 -320 -171 -417 -441 -45 -125 -79
-203 -111 -250 -84 -126 -132 -429 -86 -547 19 -48 61 -93 104 -109 12 -4 62
-13 110 -19 49 -6 158 -24 243 -41 261 -51 394 -34 488 62 17 18 34 47 38 65
9 47 39 91 75 110 29 14 55 16 216 9 157 -6 191 -4 236 10 52 16 55 16 93 -4
58 -32 131 -29 180 7 54 39 80 76 164 232 40 74 85 156 101 181 18 29 29 59
29 83 0 73 90 116 140 66 29 -29 25 -65 -14 -107 -26 -29 -35 -51 -41 -92 -9
-67 -52 -150 -137 -266 -94 -129 -120 -183 -126 -264 l-5 -68 61 -61 c142
-142 330 -213 667 -252 242 -28 509 -22 672 15 126 29 321 96 366 126 91 60
140 157 141 279 0 65 -4 84 -31 140 -43 88 -53 99 -104 108 -65 13 -101 33
-123 72 -19 32 -21 51 -21 246 l0 210 -28 42 c-15 23 -71 76 -125 118 -53 42
-126 106 -163 143 -36 36 -84 81 -107 99 -74 59 -49 101 88 148 192 65 457
229 687 426 221 190 480 505 601 732 23 43 82 135 131 205 160 226 210 328
226 453 16 124 53 147 252 158 193 11 226 23 302 109 61 68 132 115 216 141
113 36 185 96 206 172 6 24 17 55 25 70 35 66 10 129 -98 247 -32 35 -58 70
-58 77 0 18 38 17 70 -1 40 -23 97 -19 125 9 60 60 58 228 -3 299 -19 21 -55
22 -72 2 -11 -13 -10 -14 4 -9 50 19 111 -83 104 -173 -6 -65 -31 -96 -93
-113 -53 -15 -71 -9 -87 27 -7 15 -13 29 -14 31 -1 2 -11 -1 -22 -7 -17 -9
-19 -6 -22 42 -6 93 -4 119 11 128 10 6 10 9 2 9 -7 0 -13 11 -13 25 0 31 37
68 82 82 l33 11 -41 1 c-61 1 -74 -19 -90 -140 -21 -163 -29 -172 -155 -184
l-65 -7 -32 36 c-27 31 -52 89 -52 123 0 22 20 25 47 8 36 -24 115 -16 148 15
21 20 25 33 25 79 0 31 -9 90 -20 131 -25 96 -25 107 5 172 54 116 21 241 -91
350 -104 100 -237 157 -371 159 -57 1 -87 -5 -150 -29 -43 -17 -126 -42 -183
-57 -265 -67 -334 -100 -397 -193 -80 -118 -130 -293 -153 -532 -13 -142 -20
-150 -120 -150 -88 0 -207 31 -299 77 l-74 38 -22 65 c-38 116 -70 156 -301
385 -136 135 -225 230 -228 245 -2 14 -8 49 -11 79 -14 119 -75 179 -191 186
-38 2 -88 0 -112 -5z m193 -44 c21 -14 23 -23 23 -79 0 -87 20 -123 152 -268
145 -159 154 -191 75 -256 -19 -16 -49 -51 -65 -77 -27 -42 -34 -47 -62 -44
-24 2 -40 13 -63 44 -16 23 -53 74 -82 113 l-52 71 21 38 21 37 -41 -39 c-23
-22 -44 -37 -47 -35 -2 3 2 42 11 87 8 46 14 90 12 100 -7 29 -38 -123 -38
-184 0 -46 -8 -74 -45 -151 -96 -203 -249 -383 -427 -504 -55 -37 -57 -41 -47
-67 15 -38 15 -169 0 -221 -18 -64 -68 -111 -117 -111 l-38 0 39 40 c21 22 36
42 33 45 -7 8 -93 -34 -134 -64 -26 -19 -33 -32 -38 -78 -8 -65 -27 -106 -69
-145 -36 -32 -54 -34 -151 -13 -174 37 -325 146 -511 369 l-57 70 5 205 c5
210 14 267 52 341 32 61 58 91 120 131 l59 40 11 -43 c5 -24 15 -43 20 -43 6
0 33 45 61 99 60 117 83 142 229 251 141 105 252 170 387 229 80 34 221 68
277 66 105 -4 151 1 246 29 55 17 109 32 120 35 31 7 85 -2 110 -18z m2134
-121 c254 -60 410 -264 334 -435 -25 -58 -47 -75 -93 -74 l-37 1 73 -71 c48
-47 75 -83 81 -106 11 -40 1 -99 -19 -112 -18 -12 -68 -1 -90 19 -22 20 -23
10 -2 -22 20 -30 6 -32 -30 -4 -18 14 -26 30 -26 50 0 23 -19 51 -77 120 -43
50 -97 103 -120 118 -41 27 -41 29 -26 51 14 19 22 22 69 18 48 -4 51 -3 34 9
-11 8 -48 27 -82 43 -52 23 -87 30 -200 41 -159 14 -336 7 -423 -16 -33 -9
-90 -30 -127 -47 -78 -35 -98 -30 -98 29 0 66 71 166 169 237 55 40 74 47 91
36 11 -7 11 -16 -2 -49 -9 -23 -14 -41 -12 -41 3 0 31 17 62 39 126 85 286
158 382 174 53 9 107 6 169 -8z m-88 -407 c9 -16 6 -25 -11 -43 l-21 -22 41
-31 c62 -45 230 -194 230 -203 0 -19 -103 -219 -121 -235 -18 -16 -19 -16 -19
4 l0 22 -21 -21 c-28 -28 -41 -15 -75 74 -76 206 -124 265 -183 228 -11 -7 -5
-13 25 -26 21 -9 50 -26 63 -38 38 -35 71 -115 71 -174 l0 -53 -42 -1 c-39 0
-33 -3 62 -35 114 -37 173 -45 192 -26 9 9 9 25 1 64 -10 48 -8 57 13 101 14
26 29 47 34 47 6 0 10 -19 10 -42 0 -45 14 -142 24 -168 4 -10 -5 -21 -28 -34
-34 -18 -97 -76 -83 -76 4 0 30 16 58 35 84 57 163 45 195 -31 18 -43 18 -91
-1 -145 -17 -48 -69 -109 -94 -110 -11 0 -12 -2 -4 -6 23 -9 82 18 107 48 36
42 42 89 21 156 -21 66 -13 89 31 86 34 -3 188 -105 212 -141 28 -44 22 -127
-15 -203 -34 -69 -111 -155 -152 -170 -43 -17 -54 -5 -49 52 3 27 2 47 -2 42
-3 -4 -30 -38 -58 -75 -62 -78 -147 -159 -217 -203 -290 -185 -638 -46 -821
328 -27 55 -44 72 -44 43 0 -7 23 -59 50 -114 76 -153 67 -190 -41 -179 -52 6
-67 3 -109 -18 -57 -29 -80 -32 -80 -9 0 36 72 227 106 281 32 51 34 55 11 34
-31 -28 -127 -171 -146 -216 l-12 -30 30 35 c17 20 30 29 31 21 0 -30 -160
-307 -188 -325 -10 -6 -47 108 -62 194 -7 35 -18 77 -27 94 -8 16 -17 64 -20
106 -13 181 58 331 122 260 15 -17 16 -24 7 -46 -24 -50 -11 -37 29 31 52 90
87 135 103 135 8 0 18 -23 25 -60 13 -65 36 -90 81 -90 28 0 124 42 134 59 11
17 -2 13 -42 -14 -63 -43 -110 -31 -136 35 -31 77 -13 210 30 227 13 5 9 9
-17 17 -30 10 -35 17 -45 61 -50 215 52 412 247 478 51 18 210 37 296 37 50 0
132 -22 206 -54 11 -6 17 -4 17 6 0 7 7 23 15 35 17 25 40 21 56 -9z m-1551
-108 c37 -36 50 -57 50 -78 0 -37 -16 -50 -125 -105 -87 -43 -150 -93 -159
-126 -2 -9 -7 -28 -10 -43 -4 -16 -10 -28 -15 -28 -21 0 -121 117 -127 148
-21 108 160 282 294 282 38 0 48 -6 92 -50z m69 -207 c20 -17 22 -29 26 -198
2 -113 10 -210 20 -260 9 -44 21 -104 26 -134 14 -78 60 -182 141 -318 67
-113 102 -186 127 -264 10 -31 15 -35 36 -31 22 4 25 1 25 -23 0 -22 3 -26 18
-20 76 32 122 46 227 65 66 12 149 29 185 38 174 44 286 -6 326 -145 30 -103
1 -203 -88 -301 -29 -32 -84 -95 -122 -140 -38 -45 -70 -82 -72 -82 -1 0 1 14
6 30 15 54 -7 102 -90 200 -80 93 -84 108 -44 194 14 31 24 61 22 66 -2 6 -23
-15 -47 -45 -50 -65 -112 -110 -140 -102 -25 6 -46 -9 -175 -123 -107 -95
-173 -140 -207 -140 -31 0 -50 43 -54 125 -8 138 -70 334 -168 528 l-52 102 8
65 c12 85 -6 247 -37 337 -29 86 -56 139 -115 228 -42 64 -46 75 -46 130 0 47
7 71 30 113 27 49 79 101 115 115 33 12 98 7 119 -10z m162 -160 c45 -27 56
-64 62 -213 7 -171 28 -265 116 -527 64 -187 93 -303 78 -303 -3 0 -12 20 -20
45 -9 25 -46 94 -82 155 -139 231 -235 496 -235 650 0 21 -9 57 -20 81 -25 56
-25 84 0 109 25 25 62 26 101 3z m364 -80 l90 -29 3 -57 c4 -78 -16 -96 -146
-136 -113 -35 -141 -54 -157 -102 -7 -19 -16 -34 -21 -34 -5 0 -12 47 -16 103
-4 57 -12 118 -17 134 -19 54 -14 115 12 139 19 18 30 20 92 16 39 -2 111 -18
160 -34z m-988 -81 c28 -18 69 -59 94 -92 24 -33 45 -56 47 -50 5 15 59 12 90
-4 31 -16 84 -71 101 -103 14 -28 14 -169 0 -286 -14 -110 -1 -171 53 -251 18
-27 41 -61 50 -75 27 -42 124 -327 147 -434 12 -53 21 -124 21 -157 0 -33 2
-60 5 -60 3 0 37 21 77 47 114 73 209 114 277 120 54 5 62 3 84 -19 50 -50 43
-159 -13 -231 -30 -38 -127 -83 -240 -112 -234 -59 -303 -91 -381 -178 -27
-31 -43 -40 -67 -40 -37 0 -77 33 -97 79 -10 26 -24 35 -67 49 -88 29 -225
105 -311 175 -152 121 -280 310 -298 437 -6 40 -19 81 -32 101 -12 18 -67 66
-122 107 -117 85 -138 107 -160 158 -13 31 -14 48 -5 95 41 228 124 414 235
527 38 40 86 80 105 90 19 9 53 34 75 55 22 21 63 50 90 65 43 23 60 26 120
23 59 -3 79 -8 122 -36z m1422 -677 c87 -21 154 -59 208 -120 60 -65 41 -69
-69 -14 -80 42 -86 43 -169 41 -49 -1 -119 -11 -160 -22 -152 -41 -240 -61
-249 -55 -51 31 107 150 231 174 68 14 138 12 208 -4z m-292 -544 c135 -69
198 -202 142 -300 -37 -66 -130 -107 -143 -63 -3 9 -10 60 -17 112 -12 106
-32 166 -60 180 -26 15 -66 12 -100 -6 -17 -8 -33 -14 -35 -12 -2 2 1 21 7 42
21 75 112 96 206 47z m142 -428 c-138 -245 -368 -512 -639 -743 -164 -140
-388 -274 -660 -395 l-121 -54 -47 14 c-26 7 -92 21 -147 30 -308 50 -402 108
-439 267 l-6 27 42 -19 c24 -11 52 -20 62 -20 18 0 18 2 -5 26 -13 14 -61 50
-106 80 -63 41 -89 66 -117 110 -66 107 -83 265 -40 389 35 100 139 171 239
163 33 -3 40 -7 46 -32 10 -37 26 -47 58 -34 31 11 112 78 160 131 62 68 134
93 211 73 27 -7 104 -46 171 -86 67 -40 143 -80 170 -89 35 -13 57 -29 79 -60
43 -58 84 -81 148 -81 63 0 119 25 177 80 56 53 173 99 430 168 121 33 249 72
285 85 36 14 69 26 73 26 5 1 -6 -25 -24 -56z m-2381 -214 c60 -21 64 -76 15
-218 -48 -139 -28 -222 101 -419 92 -140 119 -201 114 -257 -2 -33 1 -46 12
-51 8 -3 89 -2 180 1 172 7 282 -4 392 -41 69 -22 178 -98 292 -200 138 -124
183 -162 242 -201 49 -32 53 -39 69 -101 22 -86 31 -335 16 -417 -13 -71 -73
-200 -126 -270 -75 -99 -193 -184 -310 -220 -62 -20 -266 -45 -360 -45 -173 1
-369 92 -537 249 -64 59 -66 62 -58 96 16 70 58 84 116 40 l34 -26 -30 48
c-40 64 -46 122 -25 214 43 189 104 223 285 158 228 -82 282 -91 350 -60 l45
20 -55 -7 c-90 -12 -140 -6 -240 27 -219 72 -411 194 -454 288 -16 35 -24 41
-109 72 -199 75 -305 150 -356 253 -17 34 -38 70 -47 79 -38 42 -26 138 40
299 19 47 33 87 31 89 -3 2 -18 -8 -35 -23 -18 -14 -35 -24 -40 -21 -13 8 -30
100 -30 164 0 151 54 285 149 374 67 62 112 80 292 116 3 0 20 -4 37 -10z
m110 -357 c12 -28 58 -112 102 -185 68 -113 137 -254 157 -319 10 -33 -15 -18
-75 47 -154 164 -245 353 -245 510 -1 44 6 100 13 125 l14 45 6 -85 c4 -51 15
-106 28 -138z m-603 -460 c1 -156 11 -194 86 -308 74 -113 210 -214 332 -244
51 -13 75 -38 95 -99 32 -92 4 -174 -126 -365 -52 -78 -110 -173 -128 -212
-35 -74 -46 -84 -95 -84 -22 0 -32 6 -39 24 -11 29 -47 56 -75 56 -11 0 -74
-14 -140 -31 -112 -29 -127 -30 -233 -24 -129 8 -194 32 -200 73 -4 28 11 47
58 77 27 17 47 45 83 118 114 233 134 486 51 675 -21 47 -21 52 -5 52 9 0 42
-12 72 -27 61 -30 271 -235 374 -366 33 -42 63 -76 67 -76 25 -3 -26 64 -150
193 -79 83 -159 174 -178 203 -44 69 -67 166 -54 231 20 108 76 219 136 271
34 30 38 31 53 16 13 -13 16 -40 16 -153z m-573 -193 c124 -43 163 -82 215
-214 25 -65 27 -81 27 -210 0 -181 -28 -283 -120 -425 -56 -88 -99 -127 -154
-139 -82 -19 -84 -18 -56 37 37 72 83 220 100 319 31 174 12 339 -51 455 -15
28 -58 77 -95 111 -93 82 -90 100 14 92 31 -2 85 -14 120 -26z m-246 -81 c55
-66 93 -169 107 -293 2 -16 5 7 6 52 1 101 -22 171 -80 237 -57 64 -21 63 40
-2 53 -54 105 -147 133 -236 27 -87 36 -259 15 -319 -8 -25 -13 -55 -10 -66 8
-33 -40 -119 -121 -216 -69 -82 -88 -115 -68 -115 4 0 36 7 72 17 57 14 69 14
94 2 97 -47 94 -199 -5 -269 -40 -29 -212 -59 -263 -46 -66 16 -85 138 -46
290 15 58 164 429 197 491 3 6 -2 3 -11 -6 -18 -17 -89 -171 -158 -342 -68
-170 -83 -308 -43 -403 19 -46 13 -54 -22 -28 -57 43 -78 175 -47 303 18 76
112 274 179 378 56 88 85 165 92 254 12 136 -39 276 -119 328 -21 13 -35 28
-32 32 8 14 63 -12 90 -43z m-78 -3 c42 -23 63 -42 66 -58 1 -8 8 -22 15 -31
18 -21 7 -20 -80 8 -41 13 -98 29 -127 36 -28 6 -55 17 -59 23 -9 14 117 1
170 -19 73 -27 85 -28 52 -5 -16 11 -37 21 -46 21 -34 0 -119 31 -113 42 9 14
85 3 122 -17z m-8 -94 c73 -23 113 -47 104 -62 -3 -6 -11 -8 -18 -6 -48 18
-51 13 -6 -10 51 -26 53 -28 27 -31 -15 -2 -69 10 -120 26 -51 17 -128 39
-172 49 -70 15 -75 18 -43 21 34 3 188 -19 234 -33 11 -4 8 0 -6 8 -14 8 -67
25 -117 37 -51 12 -93 25 -93 29 0 12 143 -7 210 -28z m-68 -80 c82 -21 166
-60 188 -86 12 -14 12 -18 -1 -26 -24 -15 -82 -10 -170 16 -46 14 -126 30
-177 35 -51 5 -98 13 -104 17 -20 12 23 22 102 23 l75 2 -64 14 c-36 8 -67 16
-69 19 -14 14 154 3 220 -14z m36 -117 c56 -13 115 -30 130 -38 24 -13 25 -15
9 -21 -10 -5 -44 2 -80 15 -34 12 -99 32 -144 44 -45 11 -85 24 -89 28 -9 10
53 0 174 -28z m-138 1 c36 -7 103 -30 150 -50 47 -20 74 -33 60 -30 -14 3 -97
23 -184 45 -88 22 -164 40 -169 40 -29 0 16 -15 159 -55 242 -67 301 -94 132
-61 -74 15 -335 90 -345 99 -28 29 90 36 197 12z m70 -109 c85 -25 146 -45
135 -45 -11 -1 -111 16 -223 36 -181 33 -202 38 -185 51 26 20 92 10 273 -42z
m-170 -11 c106 -16 324 -64 318 -71 -3 -2 -51 5 -108 16 -56 11 -105 19 -107
16 -2 -2 33 -13 79 -25 170 -44 129 -51 -72 -11 -113 22 -197 34 -190 28 3 -3
84 -22 180 -43 96 -20 182 -41 190 -46 30 -17 -59 -9 -174 16 -64 14 -133 25
-155 25 -46 0 -114 26 -109 42 7 21 60 29 148 25 l85 -5 -97 17 c-54 10 -101
21 -105 24 -9 10 5 9 117 -8z m125 -140 c67 -13 133 -28 146 -33 l23 -9 -24
-13 c-32 -17 -104 -8 -224 29 -54 17 -116 31 -137 31 -21 0 -41 5 -44 10 -12
19 135 10 260 -15z m-42 -50 c49 -14 105 -34 125 -46 l37 -20 -50 6 c-27 4
-111 19 -185 35 -74 16 -155 33 -180 36 -36 6 -40 9 -25 16 35 15 186 0 278
-27z m-110 -30 c104 -19 205 -49 232 -69 19 -15 18 -15 -15 -16 -75 -1 -404
72 -416 92 -8 13 104 9 199 -7z m48 -74 c52 -11 112 -27 134 -35 l40 -15 -40
0 c-42 -1 -346 55 -380 71 -34 15 145 0 246 -21z m-10 -45 c144 -29 179 -45
99 -46 -75 0 -285 29 -337 47 -122 42 29 41 238 -1z m-278 -23 c-7 -2 -21 -2
-30 0 -10 3 -4 5 12 5 17 0 24 -2 18 -5z m214 -23 c142 -19 204 -32 200 -44
-6 -19 -49 -18 -111 4 -33 11 -71 20 -85 21 -37 1 -131 26 -104 28 12 0 57 -4
100 -9z m-11 -35 c63 -14 131 -32 151 -40 l38 -14 -50 0 c-62 -1 -353 26 -366
34 -13 9 -11 32 4 38 30 13 118 5 223 -18z m-36 -60 c58 -3 130 -12 160 -19
l55 -14 -70 -1 c-38 0 -115 6 -170 14 -55 8 -118 15 -140 16 -34 1 -37 2 -15
9 14 4 36 6 50 4 14 -2 72 -6 130 -9z m3337 -26 c38 -14 100 -76 125 -124 31
-59 28 -135 -6 -180 -15 -19 -40 -42 -57 -50 -16 -9 -29 -20 -29 -25 0 -18
-66 -11 -88 10 l-22 20 7 -46 c4 -33 2 -48 -8 -54 -18 -12 -28 -4 -51 44 -11
22 -17 30 -14 17 7 -35 -20 -87 -59 -111 -75 -47 -219 -81 -419 -99 -101 -10
-459 8 -591 29 -87 14 -200 47 -254 74 -67 34 -147 100 -177 146 -22 34 -25
46 -20 84 8 53 39 96 68 96 31 0 103 -45 194 -121 150 -125 188 -144 320 -164
189 -29 413 -9 574 49 64 24 168 82 218 123 l43 36 36 -34 36 -34 -21 36 c-38
63 -25 77 28 32 l32 -26 -17 39 c-37 85 -45 147 -24 185 26 49 111 73 176 48z
m-3337 -13 c134 -17 212 -35 204 -47 -9 -15 -73 -10 -224 17 -229 42 -217 59
20 30z m29 -57 c85 -16 157 -32 160 -35 20 -22 -347 43 -372 65 -11 10 32 4
212 -30z m-38 -28 c85 -21 165 -41 179 -44 14 -3 -22 -4 -80 -3 l-105 3 94
-23 c135 -34 141 -48 16 -40 -161 10 -346 52 -315 71 8 5 46 8 84 8 l71 -1
-70 19 c-103 29 -102 28 -85 39 24 15 49 12 211 -29z m-29 -106 c130 -18 208
-35 208 -47 0 -15 -93 -8 -218 17 -206 42 -201 58 10 30z m51 -55 c76 -11 152
-20 168 -20 20 0 28 -4 23 -11 -11 -18 -226 -3 -302 21 -81 25 -111 43 -62 35
19 -3 97 -14 173 -25z m232 -70 c16 -7 13 -9 -15 -9 -19 0 -55 4 -80 8 l-45 8
60 1 c33 0 69 -3 80 -8z m329 -9 c6 -9 -83 -35 -92 -27 -5 6 56 35 75 36 6 0
14 -4 17 -9z m2886 -46 c-31 -94 -301 -210 -572 -245 -143 -18 -530 -8 -607
16 -36 12 7 11 161 -1 116 -9 196 -11 262 -5 268 26 508 108 691 238 39 27 71
46 73 41 2 -5 -2 -25 -8 -44z"/>
<path d="M4035 5400 c-3 -5 -1 -10 4 -10 6 0 11 5 11 10 0 6 -2 10 -4 10 -3 0
-8 -4 -11 -10z"/>
<path d="M4061 5384 c0 -11 3 -14 6 -6 3 7 2 16 -1 19 -3 4 -6 -2 -5 -13z"/>
<path d="M3951 5342 c-51 -25 -68 -40 -81 -70 -10 -20 -45 -75 -79 -122 -63
-86 -32 -60 52 44 27 32 46 47 60 45 41 -3 47 1 47 29 0 43 15 57 59 56 28 -1
42 3 46 15 5 13 4 14 -6 4 -19 -19 -27 -16 -31 10 -3 22 -3 22 -67 -11z"/>
<path d="M3670 5095 c0 -17 33 -66 60 -89 35 -29 72 -37 50 -11 -7 8 -19 15
-26 15 -8 0 -25 18 -38 39 -24 37 -46 60 -46 46z"/>
<path d="M7005 4948 c16 -13 59 -46 95 -75 35 -29 67 -50 69 -47 10 9 -76 87
-124 112 -66 36 -76 38 -40 10z"/>
<path d="M7030 4871 c0 -5 5 -13 10 -16 6 -3 10 -2 10 4 0 5 -4 13 -10 16 -5
3 -10 2 -10 -4z"/>
<path d="M6670 5146 c0 -2 7 -7 16 -10 8 -3 12 -2 9 4 -6 10 -25 14 -25 6z"/>
<path d="M6487 5012 c-17 -19 -37 -73 -37 -101 0 -8 14 12 31 43 32 61 35 90
6 58z"/>
<path d="M6387 4912 c-12 -18 2 -113 20 -137 15 -19 15 -19 8 5 -4 14 -10 52
-14 85 -4 38 -9 55 -14 47z"/>
<path d="M6048 4617 c12 -7 29 -23 38 -35 20 -29 34 -28 34 3 0 27 -30 45 -73
45 l-22 -1 23 -12z"/>
<path d="M5987 4518 c4 -13 8 -44 8 -70 0 -25 3 -50 8 -54 4 -4 7 16 7 44 0
29 4 52 10 52 5 0 21 -17 35 -37 28 -42 30 -41 14 5 -6 17 -28 42 -51 57 l-40
26 9 -23z"/>
<path d="M6455 4525 c-33 -7 -76 -19 -96 -28 -43 -19 -89 -70 -89 -98 0 -15
15 -4 63 45 l62 64 73 7 c39 4 75 11 78 16 7 12 -16 10 -91 -6z"/>
<path d="M6578 4459 c-90 -7 -170 -35 -194 -67 -15 -19 -19 -78 -6 -86 5 -3
35 22 68 56 75 77 102 88 210 88 48 0 85 2 83 5 -10 9 -76 11 -161 4z"/>
<path d="M6873 4424 c-37 -29 -45 -52 -10 -30 12 8 37 17 55 21 28 6 46 25 23
25 -5 0 -15 2 -23 5 -7 3 -28 -7 -45 -21z"/>
<path d="M6831 4360 c-1 -24 27 -59 62 -76 31 -15 31 -15 -6 16 -21 18 -43 42
-47 54 -6 13 -9 15 -9 6z"/>
<path d="M5596 3648 c-5 -10 -2 -25 7 -38 13 -19 15 -19 28 -3 12 15 12 16 -3
10 -13 -4 -18 1 -20 21 -3 22 -6 24 -12 10z"/>
<path d="M5500 3481 c-5 -11 -10 -35 -10 -53 l0 -33 20 43 c10 23 25 42 32 42
9 0 9 3 -2 10 -22 14 -28 12 -40 -9z"/>
<path d="M5560 3453 c0 -13 -9 -32 -20 -43 -21 -21 -11 -26 21 -10 21 12 24
36 9 60 -8 12 -10 11 -10 -7z"/>
<path d="M4686 3504 c-10 -27 -7 -86 5 -79 5 4 19 -1 30 -11 17 -15 19 -15 19
-1 0 8 11 24 25 35 30 24 31 32 7 32 -11 0 -27 9 -37 20 -22 24 -41 26 -49 4z"/>
<path d="M4777 3330 c11 -19 32 -57 47 -83 19 -34 26 -56 22 -75 -6 -24 -2
-29 36 -46 24 -11 46 -21 50 -24 4 -2 0 15 -9 37 -15 39 -15 42 3 62 19 22 19
22 -3 8 -20 -12 -26 -11 -50 7 -15 11 -40 42 -54 68 -14 26 -34 55 -44 64 -16
15 -16 13 2 -18z"/>
<path d="M4960 3075 c-25 -14 -25 -14 -2 -15 25 0 30 -15 6 -24 -8 -3 -12 -11
-8 -18 10 -16 55 38 48 57 -7 18 -12 18 -44 0z"/>
<path d="M4947 566 c-88 -79 -237 -139 -402 -162 l-100 -13 104 4 c213 10 348
69 432 187 27 37 23 35 -34 -16z"/>
<path d="M4000 520 c73 -64 113 -80 242 -100 156 -25 200 -24 83 1 -122 26
-207 54 -290 95 l-70 34 35 -30z"/>
<path d="M2461 1194 c0 -11 3 -14 6 -6 3 7 2 16 -1 19 -3 4 -6 -2 -5 -13z"/>
<path d="M2205 1389 c20 -13 145 -42 152 -35 2 2 -27 11 -64 20 -37 9 -77 19
-88 22 -20 5 -20 5 0 -7z"/>
<path d="M1868 553 c6 -2 18 -2 25 0 6 3 1 5 -13 5 -14 0 -19 -2 -12 -5z"/>
<path d="M7370 4814 c-23 -13 -24 -14 -4 -14 12 0 27 7 34 15 15 18 4 18 -30
-1z"/>
</g>
</svg>
